<svg height="511pt" viewBox="-86 1 511 511.99946" width="511pt" xmlns="http://www.w3.org/2000/svg"><path d="m310.496094 210.007812c-23.382813 0-124.089844 0-173.214844 0-7.996094 2.617188-13.78125 10.132813-13.78125 19 0 11.046876 8.949219 19.996094 20 19.996094h173.214844c7.996094-2.617187 13.777344-10.132812 13.777344-18.996094 0-11.050781-8.949219-20-19.996094-20zm0 0" fill="#e0f4ff"/><path d="m269.394531 130.007812 39.480469-92.117187c3.480469-8.132813 1.152344-17.273437-5.113281-22.832031-5.222657 1.746094-9.707031 5.613281-12.035157 11.070312l-44.515624 103.878906zm0 0" fill="#766e6e"/><path d="m290.496094 170.007812h-20c11.050781 0 20-8.949218 20-20 0-11.039062-8.960938-20-20-20 0 0-39.914063 0-50 0-21.078125 0-39.101563-10.4375-46.453125-25.199218-8.394531 8.941406-13.546875 20.96875-13.546875 34.199218 0 16.5625 13.441406 30 30 30h-30c-1.664063 0-3.273438.226563-4.816406.609376 1.570312.253906 3.175781.390624 4.816406.390624h-6.222656c-8 2.617188-13.773438 10.125-13.773438 19 0 11.050782 8.949219 20 19.996094 20h136.226562c7.996094-2.617187 13.773438-10.128906 13.773438-19 0-11.050781-8.953125-20-20-20zm0 0" fill="#fed2a4"/><path d="m223.996094 346.324219c-21.050782 1.21875-36.5 6.746093-36.5 29.675781 0 22.933594 15.445312 56.058594 36.5 66.625 21.054687-10.566406 36.5-43.691406 36.5-66.625 0-22.929688-15.449219-28.457031-36.5-29.675781zm0 0" fill="#e0f4ff"/><path d="m303.414062 250.003906h-157.007812c-15.65625 14.882813-24.90625 35.644532-24.90625 58v151.996094c0 22.089844 17.910156 40 39.996094 40h141.488281c15.972656-5.25 27.507813-20.273438 27.507813-38v-151.996094c0-23.890625-10.476563-45.339844-27.078126-60zm-92.917968 194.996094c-27.609375 0-50-42.386719-50-69.996094s22.390625-30 50-30 50 2.390625 50 30-22.390625 69.996094-50 69.996094zm0 0" fill="#ff637b"/><path d="m50.5 360.003906c0-16.5625 13.441406-30 30-30h10v-20c0-5.703125.601562-11.273437 1.742188-16.644531-32.082032 6.386719-56.261719 34.6875-56.261719 68.644531 0 32.933594 22.75 60.539063 53.386719 67.996094h1.132812v-39.996094h-10c-16.570312 0-30-13.429687-30-30zm0 0" fill="#766e6e"/><path d="m80.5 440v22c0 27.570312 22.429688 50 50 50h159.996094c27.566406 0 49.996094-22.429688 49.996094-50v-46c0-5.519531-4.476563-10-10-10-5.519532 0-9.996094 4.480469-9.996094 10v46c0 16.542969-13.460938 30-30 30h-159.996094c-16.542969 0-30-13.457031-30-30v-151.996094c0-18.609375 7.328125-36.59375 21.023438-50h177.960937c13.394531 13.140625 21.011719 31.160156 21.011719 50v26c0 5.523438 4.476562 10 9.996094 10 5.523437 0 10-4.476562 10-10v-26c0-19.140625-6.113282-37.617187-17.175782-52.863281 10.035156-4.75 17.175782-15.015625 17.175782-27.132813 0-13.816406-9.386719-25.472656-22.117188-28.945312 1.359375-3.421875 2.121094-7.152344 2.121094-11.054688 0-13.816406-9.390625-25.472656-22.121094-28.941406 1.363281-3.425781 2.121094-7.15625 2.121094-11.058594 0-12.03125-7.070313-22.34375-17.164063-27.128906l34.734375-81.050781c6.507813-15.207031-.558594-32.875-15.753906-39.390625-15.269531-6.539062-32.890625.527344-39.390625 15.753906l-43.621094 101.792969c-21.015625-.476563-38.304687-13.421875-38.789062-29.28125-.089844-2.945313-1.472657-5.699219-3.78125-7.53125-2.3125-1.828125-5.3125-2.546875-8.199219-1.964844-27.832031 5.632813-48.035156 30.363281-48.035156 58.800781 0 7.265626 1.933594 14.238282 5.542968 20.332032-14.433593 2.160156-25.542968 14.640625-25.542968 29.667968 0 3.902344.757812 7.628907 2.121094 11.050782-4.992188 1.351562-9.574219 3.980468-13.332032 7.738281-5.664062 5.667969-8.789062 13.199219-8.789062 21.210937 0 11.949219 7.027344 22.289063 17.167968 27.105469-5.09375 7-9.136718 14.695313-12.023437 22.890625h-5.144531c-44.03125 0-79.996094 35.621094-79.996094 80 0 44.109375 35.886719 79.996094 80 79.996094zm0-59.996094c-11.027344 0-20-8.972656-20-20 0-11.046875 8.953125-20 20-20zm200.8125-353.949218c2.164062-5.070313 8.027344-7.414063 13.125-5.230469 5.0625 2.167969 7.417969 8.0625 5.246094 13.128906l-36.882813 86.054687h-21.75zm-150.8125 153.953124h59.996094c5.523437 0 10-4.476562 10-10 0-5.523437-4.476563-10-10-10-13.835938 0-22.84375 0-30 0-11.042969 0-19.996094-8.953124-19.996094-20 0-15.484374 8.976562-29.320312 22.367188-35.914062 7.222656 20.914062 30.164062 35.914062 57.628906 35.914062h50c5.519531 0 10 4.476563 10 10 0 5.515626-4.488282 10-10 10-5.523438 0-10 4.476563-10 10 0 5.523438 4.476562 10 10 10h20c5.511718 0 10 4.484376 10 10 0 5.511719-4.488282 10-10 10h-159.996094c-5.515625 0-10-4.488281-10-10 0-5.515624 4.484375-10 10-10zm-27.070312 42.929688c1.890624-1.890625 4.402343-2.929688 7.070312-2.929688h199.992188c5.515624 0 10 4.484376 10 10 0 5.519532-4.476563 9.996094-10 9.996094h-199.992188c-5.515625 0-10-4.484375-10-9.996094 0-2.671874 1.039062-5.179687 2.929688-7.070312zm-22.929688 77.066406h.566406c-.371094 3.3125-.566406 6.652344-.566406 10v10c-22.097656 0-40 17.898438-40 40 0 22.054688 17.945312 40 40 40v19.996094c-33.082031 0-60-26.914062-60-59.996094 0-33.023437 26.714844-60 60-60zm0 0"/><path d="m240.496094 316.003906c5.523437 0 10-4.476562 10-10 0-5.523437-4.476563-10-10-10-22.054688 0-40 17.945313-40 40v.160156c-29.167969 1.03125-49.996094 9.78125-49.996094 39.839844 0 32.535156 25.808594 79.996094 59.996094 79.996094 34.171875 0 60-47.464844 60-79.996094 0-30.070312-20.84375-38.808594-50-39.839844v-.160156c0-11.027344 8.972656-20 20-20zm10 60c0 23.199219-19.410156 59.996094-40 59.996094-20.71875 0-40-36.996094-40-59.996094 0-14.761718 6.042968-20 40-20 33.957031 0 40 5.238282 40 20zm0 0"/><path d="m340.492188 376.003906c0 5.519532-4.476563 10-10 10-5.519532 0-9.996094-4.480468-9.996094-10 0-5.523437 4.476562-10 9.996094-10 5.523437 0 10 4.476563 10 10zm0 0"/></svg>